<?xml version="1.0" standalone="no"?>
<!DOCTYPE svg PUBLIC "-//W3C//DTD SVG 20010904//EN"
 "http://www.w3.org/TR/2001/REC-SVG-20010904/DTD/svg10.dtd">
<svg version="1.0" xmlns="http://www.w3.org/2000/svg"
 width="512.000000pt" height="512.000000pt" viewBox="0 0 512.000000 512.000000"
 preserveAspectRatio="xMidYMid meet">

<g transform="translate(0.000000,512.000000) scale(0.100000,-0.100000)"
fill="#000000" stroke="none">
<path d="M2380 5114 c-19 -2 -78 -9 -130 -14 -330 -36 -695 -160 -990 -336
-375 -224 -680 -529 -904 -904 -175 -292 -291 -632 -338 -990 -16 -123 -16
-497 0 -620 82 -623 356 -1150 820 -1581 256 -239 575 -425 922 -539 274 -91
491 -124 800 -124 228 0 329 9 530 50 689 141 1304 583 1674 1204 175 292 291
632 338 990 16 123 16 497 0 620 -47 358 -163 698 -338 990 -224 375 -529 680
-904 904 -289 173 -634 291 -980 336 -88 12 -438 21 -500 14z m525 -218 c956
-151 1713 -839 1945 -1766 51 -205 65 -322 65 -570 0 -235 -13 -354 -57 -539
-203 -860 -872 -1537 -1728 -1751 -205 -51 -322 -65 -570 -65 -248 0 -365 14
-570 65 -856 214 -1525 891 -1728 1751 -44 185 -57 304 -57 539 0 248 14 365
65 570 214 856 891 1525 1751 1728 73 18 210 40 339 56 77 9 449 -3 545 -18z"/>
<path d="M2530 4624 c-58 -24 -84 -92 -54 -142 22 -38 52 -52 113 -52 86 0
253 -20 366 -45 364 -79 664 -245 943 -522 110 -110 127 -123 158 -123 74 0
123 74 90 138 -25 48 -170 196 -280 285 -292 234 -601 374 -968 436 -120 21
-342 36 -368 25z"/>
<path d="M4196 3609 c-81 -96 46 -219 138 -134 20 19 26 33 26 66 0 61 -37 99
-96 99 -35 0 -47 -5 -68 -31z"/>
</g>
</svg>
