<?xml version="1.0" standalone="no"?>
<!DOCTYPE svg PUBLIC "-//W3C//DTD SVG 20010904//EN"
 "http://www.w3.org/TR/2001/REC-SVG-20010904/DTD/svg10.dtd">
<svg version="1.0" xmlns="http://www.w3.org/2000/svg"
 width="512.000000pt" height="512.000000pt" viewBox="0 0 512.000000 512.000000"
 preserveAspectRatio="xMidYMid meet">

<g transform="translate(0.000000,512.000000) scale(0.100000,-0.100000)"
fill="#000000" stroke="none">
<path d="M750 5099 c-188 -40 -331 -118 -471 -258 -142 -143 -219 -284 -258
-478 -21 -100 -21 -122 -21 -1803 0 -1681 0 -1703 21 -1803 39 -194 116 -335
258 -478 143 -142 284 -219 478 -258 100 -21 122 -21 1803 -21 1681 0 1703 0
1803 21 194 39 335 116 478 258 142 143 219 284 258 478 21 100 21 122 21
1803 0 1681 0 1703 -21 1803 -39 194 -116 335 -258 478 -143 142 -284 219
-478 258 -100 21 -120 21 -1810 20 -1665 0 -1710 -1 -1803 -20z"/>
</g>
</svg>
