<?xml version="1.0" standalone="no"?>
<!DOCTYPE svg PUBLIC "-//W3C//DTD SVG 20010904//EN"
 "http://www.w3.org/TR/2001/REC-SVG-20010904/DTD/svg10.dtd">
<svg version="1.0" xmlns="http://www.w3.org/2000/svg"
 width="512.000000pt" height="512.000000pt" viewBox="0 0 512.000000 512.000000"
 preserveAspectRatio="xMidYMid meet">

<g transform="translate(0.000000,512.000000) scale(0.100000,-0.100000)"
fill="#000000" stroke="none">
<path d="M525 5110 c-128 -26 -240 -86 -335 -180 -75 -76 -120 -147 -158 -252
l-27 -73 0 -2045 0 -2045 27 -73 c38 -105 83 -176 158 -252 76 -75 147 -120
252 -158 l73 -27 2045 0 2045 0 73 27 c105 38 176 83 252 158 75 76 120 147
158 252 l27 73 0 2045 0 2045 -27 73 c-38 105 -83 176 -158 252 -76 75 -147
120 -252 158 l-73 27 -2020 1 c-1111 1 -2038 -2 -2060 -6z m3955 -2550 l0
-1920 -1920 0 -1920 0 0 1920 0 1920 1920 0 1920 0 0 -1920z"/>
</g>
</svg>
