<?xml version="1.0" standalone="no"?>
<!DOCTYPE svg PUBLIC "-//W3C//DTD SVG 20010904//EN"
 "http://www.w3.org/TR/2001/REC-SVG-20010904/DTD/svg10.dtd">
<svg version="1.0" xmlns="http://www.w3.org/2000/svg"
 width="512.000000pt" height="512.000000pt" viewBox="0 0 512.000000 512.000000"
 preserveAspectRatio="xMidYMid meet">

<g transform="translate(0.000000,512.000000) scale(0.100000,-0.100000)"
fill="#000000" stroke="none">
<path d="M1195 4958 c-2 -7 -72 -562 -155 -1233 -83 -671 -154 -1235 -157
-1252 l-5 -33 551 0 c434 0 551 -3 551 -12 -1 -7 -47 -200 -103 -428 l-103
-415 -342 -3 c-188 -1 -342 -4 -342 -7 0 -13 752 -1390 759 -1390 5 0 348 313
762 695 l752 695 -320 5 -320 5 698 987 c385 543 699 990 699 993 0 3 -385 5
-856 5 -681 0 -855 3 -851 13 2 6 108 291 235 632 126 341 242 650 256 688
l25 67 -865 0 c-683 0 -865 -3 -869 -12z"/>
</g>
</svg>
