<?xml version="1.0" standalone="no"?>
<!DOCTYPE svg PUBLIC "-//W3C//DTD SVG 20010904//EN"
 "http://www.w3.org/TR/2001/REC-SVG-20010904/DTD/svg10.dtd">
<svg version="1.0" xmlns="http://www.w3.org/2000/svg"
 width="512.000000pt" height="512.000000pt" viewBox="0 0 512.000000 512.000000"
 preserveAspectRatio="xMidYMid meet">

<g transform="translate(0.000000,512.000000) scale(0.100000,-0.100000)"
fill="#000000" stroke="none">
<path d="M2380 5114 c-19 -2 -78 -9 -130 -14 -330 -36 -695 -160 -990 -336
-375 -224 -680 -529 -904 -904 -175 -292 -291 -632 -338 -990 -16 -123 -16
-497 0 -620 82 -623 356 -1150 820 -1581 256 -239 575 -425 922 -539 274 -91
491 -124 800 -124 228 0 329 9 530 50 689 141 1304 583 1674 1204 175 292 291
632 338 990 16 123 16 497 0 620 -47 358 -163 698 -338 990 -224 375 -529 680
-904 904 -289 173 -634 291 -980 336 -88 12 -438 21 -500 14z m565 -223 c925
-160 1667 -838 1900 -1735 59 -227 70 -322 70 -596 0 -274 -11 -369 -70 -596
-213 -821 -868 -1476 -1689 -1689 -227 -59 -322 -70 -596 -70 -274 0 -369 11
-596 70 -821 213 -1476 868 -1689 1689 -59 227 -70 322 -70 596 0 274 11 369
70 596 213 821 868 1476 1689 1689 113 29 241 53 376 69 19 2 136 3 260 1 172
-2 253 -8 345 -24z"/>
<path d="M2534 4624 c-67 -15 -92 -111 -42 -161 25 -25 35 -27 150 -35 292
-19 519 -78 759 -199 186 -93 397 -251 528 -395 30 -32 66 -67 80 -76 50 -34
110 -16 136 39 27 57 8 91 -124 222 -315 315 -698 511 -1136 581 -122 19 -313
32 -351 24z"/>
<path d="M4199 3611 c-21 -22 -29 -39 -29 -66 0 -27 8 -44 29 -66 22 -21 39
-29 66 -29 51 0 95 44 95 95 0 27 -8 44 -29 66 -22 21 -39 29 -66 29 -27 0
-44 -8 -66 -29z"/>
</g>
</svg>
