<?xml version="1.0" standalone="no"?>
<!DOCTYPE svg PUBLIC "-//W3C//DTD SVG 20010904//EN"
 "http://www.w3.org/TR/2001/REC-SVG-20010904/DTD/svg10.dtd">
<svg version="1.0" xmlns="http://www.w3.org/2000/svg"
 width="512.000000pt" height="512.000000pt" viewBox="0 0 512.000000 512.000000"
 preserveAspectRatio="xMidYMid meet">

<g transform="translate(0.000000,512.000000) scale(0.100000,-0.100000)"
fill="#000000" stroke="none">
<path d="M2410 4914 c-377 -35 -734 -149 -1040 -334 -627 -378 -1035 -991
-1147 -1720 -24 -160 -24 -520 0 -680 137 -890 724 -1611 1562 -1917 267 -98
501 -137 815 -137 253 0 376 14 595 69 847 213 1524 895 1733 1745 53 215 66
330 66 580 0 250 -13 365 -66 580 -210 856 -895 1541 -1750 1749 -67 16 -170
37 -228 46 -101 15 -447 27 -540 19z m396 -205 c874 -85 1611 -675 1885 -1512
253 -770 54 -1621 -515 -2206 -255 -261 -544 -444 -877 -555 -690 -230 -1426
-111 -2016 324 -127 95 -351 318 -444 445 -244 330 -389 707 -428 1109 -56
569 128 1168 493 1604 92 111 271 281 382 363 441 328 984 480 1520 428z"/>
<path d="M2410 4209 c-577 -66 -1079 -422 -1336 -944 -412 -841 -64 -1855 781
-2270 650 -320 1430 -190 1946 325 572 571 661 1473 210 2145 -352 525 -976
816 -1601 744z m485 -219 c599 -126 1047 -575 1176 -1180 19 -87 23 -136 23
-290 0 -154 -4 -203 -23 -290 -129 -607 -574 -1052 -1181 -1181 -151 -33 -429
-33 -580 0 -309 66 -563 204 -777 422 -98 101 -116 122 -180 219 -108 161
-181 338 -224 540 -30 142 -33 407 -5 555 110 590 560 1063 1136 1194 148 34
213 40 380 36 105 -3 187 -11 255 -25z"/>
<path d="M2420 3401 c-339 -74 -601 -323 -691 -656 -18 -65 -22 -107 -22 -225
0 -118 4 -160 22 -225 88 -324 340 -570 668 -652 103 -26 323 -23 428 6 317
85 560 329 646 646 18 65 22 107 22 225 0 118 -4 160 -22 225 -86 317 -333
564 -646 646 -116 30 -294 35 -405 10z m313 -195 c212 -41 395 -182 491 -378
101 -207 101 -409 -1 -618 -38 -79 -60 -109 -132 -181 -72 -72 -102 -94 -181
-132 -103 -50 -211 -77 -310 -77 -99 0 -207 27 -310 77 -79 38 -109 60 -181
132 -71 71 -94 102 -133 181 -101 206 -101 414 0 620 39 79 62 110 133 181 71
71 102 94 181 133 146 72 287 91 443 62z"/>
</g>
</svg>
